<svg xmlns="http://www.w3.org/2000/svg" height="24" width="24" viewBox="0 0 48 48" style="font-family: -apple-system-subset, Helvetica, &quot;Hiragino Kaku Gothic ProN&quot;, sans-serif; font-size: 16px; font-style: normal; font-variant-caps: normal; font-weight: bold; letter-spacing: normal; orphans: auto; text-align: start; text-indent: 0px; text-transform: none; white-space: normal; widows: auto; word-spacing: 0px; -webkit-tap-highlight-color: rgba(0, 0, 0, 0); -webkit-text-size-adjust: none; -webkit-text-stroke-width: 0px; text-decoration: none;">
<path style="fill: #000080" d="M31.778 20.964l-7.071 7.072-2.121 2.12a.999.999 0 01-1.414 0l-2.122-2.12-2.829-2.829a2 2 0 112.828-2.828l2.83 2.829 7.07-7.072a2 2 0 112.829 2.828zM42 18.129l-5.241-3.436-1.635-6.064-6.25.312L24 5l-4.874 3.941-6.251-.312-1.635 6.064L6 18.129 8.228 24 6 29.871l5.24 3.435 1.635 6.065 6.251-.313L24 43l4.874-3.942 6.25.313 1.635-6.065L42 29.871 39.772 24 42 18.129z" fill-rule="evenodd"></path>
</svg>
